<svg xmlns="http://www.w3.org/2000/svg" width="1500" height="920" viewBox="0 0 1500 920" role="img" aria-labelledby="title description"><title id="title">Multi-seed lifecycle method comparison</title><desc id="description">Primary outcomes from 900 independent exact environment lifecycles across AuthGate, ConstraintPlan, and BatchTriage.</desc><rect width="1500" height="920" fill="#F7F9FC"/><style>text{font-family:-apple-system,BlinkMacSystemFont,"Segoe UI",sans-serif;font-variant-numeric:tabular-nums}</style><text x="55" y="62" font-size="31" fill="#183153" font-weight="600" text-anchor="start">Multi-seed lifecycle benchmark</text><text x="55" y="96" font-size="15" fill="#68768A" font-weight="400" text-anchor="start">900 independent 50-update lifecycles  |  three exact environment families  |  paired methods</text><rect x="1110" y="42" width="335" height="42" rx="21" fill="#E8EEF9"/><text x="1277" y="69" font-size="12" fill="#183153" font-weight="600" text-anchor="middle">PASSES FROZEN TEST VS SHRINKING ONLY</text><line x1="55" y1="127" x2="1445" y2="127" stroke="#DDE3EC"/><text x="55" y="215" font-size="13" fill="#243247" font-weight="500" text-anchor="start">Always hold</text><text x="55" y="270" font-size="13" fill="#243247" font-weight="500" text-anchor="start">Greedy</text><text x="55" y="325" font-size="13" fill="#243247" font-weight="500" text-anchor="start">Fixed threshold</text><rect x="38" y="352" width="1407" height="44" rx="8" fill="#EDF3FE"/><text x="55" y="380" font-size="13" fill="#243247" font-weight="500" text-anchor="start">Shrinking budget</text><rect x="38" y="407" width="1407" height="44" rx="8" fill="#EDF3FE"/><text x="55" y="435" font-size="13" fill="#243247" font-weight="500" text-anchor="start">ADDIS spending</text><rect x="38" y="462" width="1407" height="44" rx="8" fill="#EDF3FE"/><text x="55" y="490" font-size="13" fill="#243247" font-weight="500" text-anchor="start">Online closed e-test</text><text x="55" y="545" font-size="13" fill="#243247" font-weight="500" text-anchor="start">PACE reset</text><text x="55" y="600" font-size="13" fill="#243247" font-weight="500" text-anchor="start">Reusable holdout</text><text x="55" y="655" font-size="13" fill="#243247" font-weight="500" text-anchor="start">Transferred SGM</text><text x="55" y="710" font-size="13" fill="#243247" font-weight="500" text-anchor="start">Live monitor</text><text x="55" y="765" font-size="13" fill="#243247" font-weight="500" text-anchor="start">True answer</text><text x="230" y="158" font-size="19" fill="#183153" font-weight="600" text-anchor="start">Lifecycle harm</text><text x="230" y="181" font-size="12" fill="#68768A" font-weight="400" text-anchor="start">lower is better</text><line x1="230" y1="195" x2="580" y2="195" stroke="#AAB6C7"/><line x1="230.0" y1="191" x2="230.0" y2="810" stroke="#DDE3EC"/><text x="230.0" y="832" font-size="11" fill="#68768A" font-weight="400" text-anchor="middle">0</text><line x1="317.5" y1="191" x2="317.5" y2="810" stroke="#DDE3EC"/><text x="317.5" y="832" font-size="11" fill="#68768A" font-weight="400" text-anchor="middle">0.25</text><line x1="405.0" y1="191" x2="405.0" y2="810" stroke="#DDE3EC"/><text x="405.0" y="832" font-size="11" fill="#68768A" font-weight="400" text-anchor="middle">0.5</text><line x1="492.5" y1="191" x2="492.5" y2="810" stroke="#DDE3EC"/><text x="492.5" y="832" font-size="11" fill="#68768A" font-weight="400" text-anchor="middle">0.75</text><line x1="580.0" y1="191" x2="580.0" y2="810" stroke="#DDE3EC"/><text x="580.0" y="832" font-size="11" fill="#68768A" font-weight="400" text-anchor="middle">1</text><circle cx="230.00" cy="210" r="6" fill="#68768A" stroke="#FFFFFF" stroke-width="2"/><text x="240.0" y="200" font-size="10" fill="#68768A" font-weight="600" text-anchor="start">0.00</text><circle cx="580.00" cy="265" r="6" fill="#68768A" stroke="#FFFFFF" stroke-width="2"/><text x="570.0" y="255" font-size="10" fill="#68768A" font-weight="600" text-anchor="end">1.00</text><circle cx="463.33" cy="320" r="6" fill="#68768A" stroke="#FFFFFF" stroke-width="2"/><text x="473.3333333333333" y="310" font-size="10" fill="#68768A" font-weight="600" text-anchor="start">0.67</text><circle cx="461.00" cy="375" r="6" fill="#0F9D8A" stroke="#FFFFFF" stroke-width="2"/><text x="471.0" y="365" font-size="10" fill="#0F9D8A" font-weight="600" text-anchor="start">0.66</text><circle cx="463.33" cy="430" r="6" fill="#7C5CE7" stroke="#FFFFFF" stroke-width="2"/><text x="473.3333333333333" y="420" font-size="10" fill="#7C5CE7" font-weight="600" text-anchor="start">0.67</text><circle cx="429.50" cy="485" r="6" fill="#2F6FED" stroke="#FFFFFF" stroke-width="2"/><text x="439.5" y="475" font-size="10" fill="#2F6FED" font-weight="600" text-anchor="start">0.57</text><circle cx="463.33" cy="540" r="6" fill="#68768A" stroke="#FFFFFF" stroke-width="2"/><text x="473.3333333333333" y="530" font-size="10" fill="#68768A" font-weight="600" text-anchor="start">0.67</text><circle cx="463.33" cy="595" r="6" fill="#68768A" stroke="#FFFFFF" stroke-width="2"/><text x="473.3333333333333" y="585" font-size="10" fill="#68768A" font-weight="600" text-anchor="start">0.67</text><circle cx="580.00" cy="650" r="6" fill="#68768A" stroke="#FFFFFF" stroke-width="2"/><text x="570.0" y="640" font-size="10" fill="#68768A" font-weight="600" text-anchor="end">1.00</text><circle cx="230.00" cy="705" r="6" fill="#68768A" stroke="#FFFFFF" stroke-width="2"/><text x="240.0" y="695" font-size="10" fill="#68768A" font-weight="600" text-anchor="start">0.00</text><circle cx="230.00" cy="760" r="6" fill="#D9485F" stroke="#FFFFFF" stroke-width="2"/><text x="240.0" y="750" font-size="10" fill="#D9485F" font-weight="600" text-anchor="start">0.00</text><text x="640" y="158" font-size="19" fill="#183153" font-weight="600" text-anchor="start">Safe acceptance</text><text x="640" y="181" font-size="12" fill="#68768A" font-weight="400" text-anchor="start">higher is better</text><line x1="640" y1="195" x2="990" y2="195" stroke="#AAB6C7"/><line x1="640.0" y1="191" x2="640.0" y2="810" stroke="#DDE3EC"/><text x="640.0" y="832" font-size="11" fill="#68768A" font-weight="400" text-anchor="middle">0</text><line x1="727.5" y1="191" x2="727.5" y2="810" stroke="#DDE3EC"/><text x="727.5" y="832" font-size="11" fill="#68768A" font-weight="400" text-anchor="middle">0.25</text><line x1="815.0" y1="191" x2="815.0" y2="810" stroke="#DDE3EC"/><text x="815.0" y="832" font-size="11" fill="#68768A" font-weight="400" text-anchor="middle">0.5</text><line x1="902.5" y1="191" x2="902.5" y2="810" stroke="#DDE3EC"/><text x="902.5" y="832" font-size="11" fill="#68768A" font-weight="400" text-anchor="middle">0.75</text><line x1="990.0" y1="191" x2="990.0" y2="810" stroke="#DDE3EC"/><text x="990.0" y="832" font-size="11" fill="#68768A" font-weight="400" text-anchor="middle">1</text><circle cx="640.00" cy="210" r="6" fill="#68768A" stroke="#FFFFFF" stroke-width="2"/><text x="650.0" y="200" font-size="10" fill="#68768A" font-weight="600" text-anchor="start">0.00</text><circle cx="990.00" cy="265" r="6" fill="#68768A" stroke="#FFFFFF" stroke-width="2"/><text x="980.0" y="255" font-size="10" fill="#68768A" font-weight="600" text-anchor="end">1.00</text><circle cx="873.33" cy="320" r="6" fill="#68768A" stroke="#FFFFFF" stroke-width="2"/><text x="883.3333333333333" y="310" font-size="10" fill="#68768A" font-weight="600" text-anchor="start">0.67</text><circle cx="725.75" cy="375" r="6" fill="#0F9D8A" stroke="#FFFFFF" stroke-width="2"/><text x="735.75" y="365" font-size="10" fill="#0F9D8A" font-weight="600" text-anchor="start">0.25</text><circle cx="873.33" cy="430" r="6" fill="#7C5CE7" stroke="#FFFFFF" stroke-width="2"/><text x="883.3333333333333" y="420" font-size="10" fill="#7C5CE7" font-weight="600" text-anchor="start">0.67</text><circle cx="777.08" cy="485" r="6" fill="#2F6FED" stroke="#FFFFFF" stroke-width="2"/><text x="787.0833333333334" y="475" font-size="10" fill="#2F6FED" font-weight="600" text-anchor="start">0.39</text><circle cx="873.33" cy="540" r="6" fill="#68768A" stroke="#FFFFFF" stroke-width="2"/><text x="883.3333333333333" y="530" font-size="10" fill="#68768A" font-weight="600" text-anchor="start">0.67</text><circle cx="873.33" cy="595" r="6" fill="#68768A" stroke="#FFFFFF" stroke-width="2"/><text x="883.3333333333333" y="585" font-size="10" fill="#68768A" font-weight="600" text-anchor="start">0.67</text><circle cx="954.86" cy="650" r="6" fill="#68768A" stroke="#FFFFFF" stroke-width="2"/><text x="944.8638888888888" y="640" font-size="10" fill="#68768A" font-weight="600" text-anchor="end">0.90</text><circle cx="836.78" cy="705" r="6" fill="#68768A" stroke="#FFFFFF" stroke-width="2"/><text x="846.7777777777778" y="695" font-size="10" fill="#68768A" font-weight="600" text-anchor="start">0.56</text><circle cx="990.00" cy="760" r="6" fill="#D9485F" stroke="#FFFFFF" stroke-width="2"/><text x="980.0" y="750" font-size="10" fill="#D9485F" font-weight="600" text-anchor="end">1.00</text><text x="1050" y="158" font-size="19" fill="#183153" font-weight="600" text-anchor="start">Normalized utility</text><text x="1050" y="181" font-size="12" fill="#68768A" font-weight="400" text-anchor="start">higher is better</text><line x1="1050" y1="195" x2="1400" y2="195" stroke="#AAB6C7"/><line x1="1050.0" y1="191" x2="1050.0" y2="810" stroke="#DDE3EC"/><text x="1050.0" y="832" font-size="11" fill="#68768A" font-weight="400" text-anchor="middle">-1</text><line x1="1137.5" y1="191" x2="1137.5" y2="810" stroke="#DDE3EC"/><text x="1137.5" y="832" font-size="11" fill="#68768A" font-weight="400" text-anchor="middle">-0.5</text><line x1="1225.0" y1="191" x2="1225.0" y2="810" stroke="#DDE3EC"/><text x="1225.0" y="832" font-size="11" fill="#68768A" font-weight="400" text-anchor="middle">0</text><line x1="1312.5" y1="191" x2="1312.5" y2="810" stroke="#DDE3EC"/><text x="1312.5" y="832" font-size="11" fill="#68768A" font-weight="400" text-anchor="middle">0.5</text><line x1="1400.0" y1="191" x2="1400.0" y2="810" stroke="#DDE3EC"/><text x="1400.0" y="832" font-size="11" fill="#68768A" font-weight="400" text-anchor="middle">1</text><circle cx="1225.00" cy="210" r="6" fill="#68768A" stroke="#FFFFFF" stroke-width="2"/><text x="1235.0" y="200" font-size="10" fill="#68768A" font-weight="600" text-anchor="start">0.00</text><circle cx="1212.56" cy="265" r="6" fill="#68768A" stroke="#FFFFFF" stroke-width="2"/><text x="1222.5555555555557" y="255" font-size="10" fill="#68768A" font-weight="600" text-anchor="start">-0.07</text><circle cx="1220.33" cy="320" r="6" fill="#68768A" stroke="#FFFFFF" stroke-width="2"/><text x="1230.3333333333333" y="310" font-size="10" fill="#68768A" font-weight="600" text-anchor="start">-0.03</text><circle cx="1221.99" cy="375" r="6" fill="#0F9D8A" stroke="#FFFFFF" stroke-width="2"/><text x="1231.993888888889" y="365" font-size="10" fill="#0F9D8A" font-weight="600" text-anchor="start">-0.02</text><circle cx="1220.33" cy="430" r="6" fill="#7C5CE7" stroke="#FFFFFF" stroke-width="2"/><text x="1230.3333333333333" y="420" font-size="10" fill="#7C5CE7" font-weight="600" text-anchor="start">-0.03</text><circle cx="1257.60" cy="485" r="6" fill="#2F6FED" stroke="#FFFFFF" stroke-width="2"/><text x="1267.6044444444444" y="475" font-size="10" fill="#2F6FED" font-weight="600" text-anchor="start">0.19</text><circle cx="1220.33" cy="540" r="6" fill="#68768A" stroke="#FFFFFF" stroke-width="2"/><text x="1230.3333333333333" y="530" font-size="10" fill="#68768A" font-weight="600" text-anchor="start">-0.03</text><circle cx="1220.33" cy="595" r="6" fill="#68768A" stroke="#FFFFFF" stroke-width="2"/><text x="1230.3333333333333" y="585" font-size="10" fill="#68768A" font-weight="600" text-anchor="start">-0.03</text><circle cx="1205.92" cy="650" r="6" fill="#68768A" stroke="#FFFFFF" stroke-width="2"/><text x="1215.9172222222223" y="640" font-size="10" fill="#68768A" font-weight="600" text-anchor="start">-0.11</text><circle cx="1267.00" cy="705" r="6" fill="#68768A" stroke="#FFFFFF" stroke-width="2"/><text x="1277.0" y="695" font-size="10" fill="#68768A" font-weight="600" text-anchor="start">0.24</text><circle cx="1300.83" cy="760" r="6" fill="#D9485F" stroke="#FFFFFF" stroke-width="2"/><text x="1310.8333333333333" y="750" font-size="10" fill="#D9485F" font-weight="600" text-anchor="start">0.43</text><line x1="55" y1="860" x2="1445" y2="860" stroke="#DDE3EC"/><text x="55" y="892" font-size="13" fill="#68768A" font-weight="400" text-anchor="start">Dots are descriptive averages across prespecified cells. The frozen paired claim passes only versus shrinking budget; family-specific effects vary.</text></svg>
